<svg width="1199" height="500" viewBox="0 0 1199 500" fill="none" xmlns="http://www.w3.org/2000/svg">
  <g opacity="0.1" fill="white">
    <path fill-rule="evenodd" clip-rule="evenodd"
          d="M1015 433V429H1013V433H1009V435H1013V439H1015V435H1019V433H1015ZM1015 403V399H1013V403H1009V405H1013V409H1015V405H1019V403H1015ZM985 433V429H983V433H979V435H983V439H985V435H989V433H985ZM985 403V399H983V403H979V405H983V409H985V405H989V403H985Z"/>
    <path fill-rule="evenodd" clip-rule="evenodd"
          d="M1075 433V429H1073V433H1069V435H1073V439H1075V435H1079V433H1075ZM1075 403V399H1073V403H1069V405H1073V409H1075V405H1079V403H1075ZM1045 433V429H1043V433H1039V435H1043V439H1045V435H1049V433H1045ZM1045 403V399H1043V403H1039V405H1043V409H1045V405H1049V403H1045Z"/>
    <path fill-rule="evenodd" clip-rule="evenodd"
          d="M1015 494V490H1013V494H1009V496H1013V500H1015V496H1019V494H1015ZM1015 464V460H1013V464H1009V466H1013V470H1015V466H1019V464H1015ZM985 494V490H983V494H979V496H983V500H985V496H989V494H985ZM985 464V460H983V464H979V466H983V470H985V466H989V464H985Z"/>
    <path fill-rule="evenodd" clip-rule="evenodd"
          d="M1075 494V490H1073V494H1069V496H1073V500H1075V496H1079V494H1075ZM1075 464V460H1073V464H1069V466H1073V470H1075V466H1079V464H1075ZM1045 494V490H1043V494H1039V496H1043V500H1045V496H1049V494H1045ZM1045 464V460H1043V464H1039V466H1043V470H1045V466H1049V464H1045Z"/>
    <path fill-rule="evenodd" clip-rule="evenodd"
          d="M1135 433V429H1133V433H1129V435H1133V439H1135V435H1139V433H1135ZM1135 403V399H1133V403H1129V405H1133V409H1135V405H1139V403H1135ZM1105 433V429H1103V433H1099V435H1103V439H1105V435H1109V433H1105ZM1105 403V399H1103V403H1099V405H1103V409H1105V405H1109V403H1105Z"/>
    <path fill-rule="evenodd" clip-rule="evenodd"
          d="M1195 433V429H1193V433H1189V435H1193V439H1195V435H1199V433H1195ZM1195 403V399H1193V403H1189V405H1193V409H1195V405H1199V403H1195ZM1165 433V429H1163V433H1159V435H1163V439H1165V435H1169V433H1165ZM1165 403V399H1163V403H1159V405H1163V409H1165V405H1169V403H1165Z"/>
    <path fill-rule="evenodd" clip-rule="evenodd"
          d="M1135 494V490H1133V494H1129V496H1133V500H1135V496H1139V494H1135ZM1135 464V460H1133V464H1129V466H1133V470H1135V466H1139V464H1135ZM1105 494V490H1103V494H1099V496H1103V500H1105V496H1109V494H1105ZM1105 464V460H1103V464H1099V466H1103V470H1105V466H1109V464H1105Z"/>
    <path fill-rule="evenodd" clip-rule="evenodd"
          d="M1195 494V490H1193V494H1189V496H1193V500H1195V496H1199V494H1195ZM1195 464V460H1193V464H1189V466H1193V470H1195V466H1199V464H1195ZM1165 494V490H1163V494H1159V496H1163V500H1165V496H1169V494H1165ZM1165 464V460H1163V464H1159V466H1163V470H1165V466H1169V464H1165Z"/>
    <path fill-rule="evenodd" clip-rule="evenodd"
          d="M1015 311V307H1013V311H1009V313H1013V317H1015V313H1019V311H1015ZM1015 281V277H1013V281H1009V283H1013V287H1015V283H1019V281H1015ZM985 311V307H983V311H979V313H983V317H985V313H989V311H985ZM985 281V277H983V281H979V283H983V287H985V283H989V281H985Z"/>
    <path fill-rule="evenodd" clip-rule="evenodd"
          d="M1075 311V307H1073V311H1069V313H1073V317H1075V313H1079V311H1075ZM1075 281V277H1073V281H1069V283H1073V287H1075V283H1079V281H1075ZM1045 311V307H1043V311H1039V313H1043V317H1045V313H1049V311H1045ZM1045 281V277H1043V281H1039V283H1043V287H1045V283H1049V281H1045Z"/>
    <path fill-rule="evenodd" clip-rule="evenodd"
          d="M1015 372V368H1013V372H1009V374H1013V378H1015V374H1019V372H1015ZM1015 342V338H1013V342H1009V344H1013V348H1015V344H1019V342H1015ZM985 372V368H983V372H979V374H983V378H985V374H989V372H985ZM985 342V338H983V342H979V344H983V348H985V344H989V342H985Z"/>
    <path fill-rule="evenodd" clip-rule="evenodd"
          d="M1075 372V368H1073V372H1069V374H1073V378H1075V374H1079V372H1075ZM1075 342V338H1073V342H1069V344H1073V348H1075V344H1079V342H1075ZM1045 372V368H1043V372H1039V374H1043V378H1045V374H1049V372H1045ZM1045 342V338H1043V342H1039V344H1043V348H1045V344H1049V342H1045Z"/>
    <path fill-rule="evenodd" clip-rule="evenodd"
          d="M1135 311V307H1133V311H1129V313H1133V317H1135V313H1139V311H1135ZM1135 281V277H1133V281H1129V283H1133V287H1135V283H1139V281H1135ZM1105 311V307H1103V311H1099V313H1103V317H1105V313H1109V311H1105ZM1105 281V277H1103V281H1099V283H1103V287H1105V283H1109V281H1105Z"/>
    <path fill-rule="evenodd" clip-rule="evenodd"
          d="M1195 311V307H1193V311H1189V313H1193V317H1195V313H1199V311H1195ZM1195 281V277H1193V281H1189V283H1193V287H1195V283H1199V281H1195ZM1165 311V307H1163V311H1159V313H1163V317H1165V313H1169V311H1165ZM1165 281V277H1163V281H1159V283H1163V287H1165V283H1169V281H1165Z"/>
    <path fill-rule="evenodd" clip-rule="evenodd"
          d="M1135 372V368H1133V372H1129V374H1133V378H1135V374H1139V372H1135ZM1135 342V338H1133V342H1129V344H1133V348H1135V344H1139V342H1135ZM1105 372V368H1103V372H1099V374H1103V378H1105V374H1109V372H1105ZM1105 342V338H1103V342H1099V344H1103V348H1105V344H1109V342H1105Z"/>
    <path fill-rule="evenodd" clip-rule="evenodd"
          d="M1195 372V368H1193V372H1189V374H1193V378H1195V374H1199V372H1195ZM1195 342V338H1193V342H1189V344H1193V348H1195V344H1199V342H1195ZM1165 372V368H1163V372H1159V374H1163V378H1165V374H1169V372H1165ZM1165 342V338H1163V342H1159V344H1163V348H1165V344H1169V342H1165Z"/>
    <path fill-rule="evenodd" clip-rule="evenodd"
          d="M36 156V152H34V156H30V158H34V162H36V158H40V156H36ZM36 126V122H34V126H30V128H34V132H36V128H40V126H36ZM6 156V152H4V156H0V158H4V162H6V158H10V156H6ZM6 126V122H4V126H0V128H4V132H6V128H10V126H6Z"/>
    <path fill-rule="evenodd" clip-rule="evenodd"
          d="M96 156V152H94V156H90V158H94V162H96V158H100V156H96ZM96 126V122H94V126H90V128H94V132H96V128H100V126H96ZM66 156V152H64V156H60V158H64V162H66V158H70V156H66ZM66 126V122H64V126H60V128H64V132H66V128H70V126H66Z"/>
    <path fill-rule="evenodd" clip-rule="evenodd"
          d="M36 217V213H34V217H30V219H34V223H36V219H40V217H36ZM36 187V183H34V187H30V189H34V193H36V189H40V187H36ZM6 217V213H4V217H0V219H4V223H6V219H10V217H6ZM6 187V183H4V187H0V189H4V193H6V189H10V187H6Z"/>
    <path fill-rule="evenodd" clip-rule="evenodd"
          d="M96 217V213H94V217H90V219H94V223H96V219H100V217H96ZM96 187V183H94V187H90V189H94V193H96V189H100V187H96ZM66 217V213H64V217H60V219H64V223H66V219H70V217H66ZM66 187V183H64V187H60V189H64V193H66V189H70V187H66Z"/>
    <path fill-rule="evenodd" clip-rule="evenodd"
          d="M156 156V152H154V156H150V158H154V162H156V158H160V156H156ZM156 126V122H154V126H150V128H154V132H156V128H160V126H156ZM126 156V152H124V156H120V158H124V162H126V158H130V156H126ZM126 126V122H124V126H120V128H124V132H126V128H130V126H126Z"/>
    <path fill-rule="evenodd" clip-rule="evenodd"
          d="M216 156V152H214V156H210V158H214V162H216V158H220V156H216ZM216 126V122H214V126H210V128H214V132H216V128H220V126H216ZM186 156V152H184V156H180V158H184V162H186V158H190V156H186ZM186 126V122H184V126H180V128H184V132H186V128H190V126H186Z"/>
    <path fill-rule="evenodd" clip-rule="evenodd"
          d="M156 217V213H154V217H150V219H154V223H156V219H160V217H156ZM156 187V183H154V187H150V189H154V193H156V189H160V187H156ZM126 217V213H124V217H120V219H124V223H126V219H130V217H126ZM126 187V183H124V187H120V189H124V193H126V189H130V187H126Z"/>
    <path fill-rule="evenodd" clip-rule="evenodd"
          d="M216 217V213H214V217H210V219H214V223H216V219H220V217H216ZM216 187V183H214V187H210V189H214V193H216V189H220V187H216ZM186 217V213H184V217H180V219H184V223H186V219H190V217H186ZM186 187V183H184V187H180V189H184V193H186V189H190V187H186Z"/>
    <path fill-rule="evenodd" clip-rule="evenodd"
          d="M36 34V30H34V34H30V36H34V40H36V36H40V34H36ZM36 4V0H34V4H30V6H34V10H36V6H40V4H36ZM6 34V30H4V34H0V36H4V40H6V36H10V34H6ZM6 4V0H4V4H0V6H4V10H6V6H10V4H6Z"/>
    <path fill-rule="evenodd" clip-rule="evenodd"
          d="M96 34V30H94V34H90V36H94V40H96V36H100V34H96ZM96 4V0H94V4H90V6H94V10H96V6H100V4H96ZM66 34V30H64V34H60V36H64V40H66V36H70V34H66ZM66 4V0H64V4H60V6H64V10H66V6H70V4H66Z"/>
    <path fill-rule="evenodd" clip-rule="evenodd"
          d="M36 95V91H34V95H30V97H34V101H36V97H40V95H36ZM36 65V61H34V65H30V67H34V71H36V67H40V65H36ZM6 95V91H4V95H0V97H4V101H6V97H10V95H6ZM6 65V61H4V65H0V67H4V71H6V67H10V65H6Z"/>
    <path fill-rule="evenodd" clip-rule="evenodd"
          d="M96 95V91H94V95H90V97H94V101H96V97H100V95H96ZM96 65V61H94V65H90V67H94V71H96V67H100V65H96ZM66 95V91H64V95H60V97H64V101H66V97H70V95H66ZM66 65V61H64V65H60V67H64V71H66V67H70V65H66Z"/>
    <path fill-rule="evenodd" clip-rule="evenodd"
          d="M156 34V30H154V34H150V36H154V40H156V36H160V34H156ZM156 4V0H154V4H150V6H154V10H156V6H160V4H156ZM126 34V30H124V34H120V36H124V40H126V36H130V34H126ZM126 4V0H124V4H120V6H124V10H126V6H130V4H126Z"/>
    <path fill-rule="evenodd" clip-rule="evenodd"
          d="M216 34V30H214V34H210V36H214V40H216V36H220V34H216ZM216 4V0H214V4H210V6H214V10H216V6H220V4H216ZM186 34V30H184V34H180V36H184V40H186V36H190V34H186ZM186 4V0H184V4H180V6H184V10H186V6H190V4H186Z"/>
    <path fill-rule="evenodd" clip-rule="evenodd"
          d="M156 95V91H154V95H150V97H154V101H156V97H160V95H156ZM156 65V61H154V65H150V67H154V71H156V67H160V65H156ZM126 95V91H124V95H120V97H124V101H126V97H130V95H126ZM126 65V61H124V65H120V67H124V71H126V67H130V65H126Z"/>
    <path fill-rule="evenodd" clip-rule="evenodd"
          d="M216 95V91H214V95H210V97H214V101H216V97H220V95H216ZM216 65V61H214V65H210V67H214V71H216V67H220V65H216ZM186 95V91H184V95H180V97H184V101H186V97H190V95H186ZM186 65V61H184V65H180V67H184V71H186V67H190V65H186Z"/>
  </g>
</svg>
